<svg width="76" height="76" viewBox="0 0 76 76" fill="none" xmlns="http://www.w3.org/2000/svg">
<path fill-rule="evenodd" clip-rule="evenodd" d="M46.3212 0.156044C42.5853 0.640063 38.7997 1.94456 35.7559 3.79675L34.8743 4.33313L31.7868 2.54743C30.0886 1.56526 28.4572 0.716221 28.1614 0.66059C27.5133 0.538767 26.7155 0.778843 26.1314 1.27104C25.8971 1.46858 25.2609 2.41668 24.7176 3.37788L23.7296 5.12579L21.5583 5.1075L19.387 5.0892L18.3128 3.24847C17.0535 1.09076 16.5886 0.68305 15.3737 0.671002C14.6621 0.664011 14.3984 0.78271 11.7869 2.28534C7.09102 4.98716 6.92916 5.09619 6.54366 5.81687C5.98813 6.85541 6.12712 7.48505 7.38949 9.65005L8.45912 11.4845L7.86632 12.3959C7.54022 12.8973 7.06473 13.7257 6.80976 14.2368L6.34616 15.1661L4.24166 15.1694C1.90685 15.173 1.21411 15.3567 0.603936 16.1337C0.0305897 16.8638 -0.0351944 17.5068 0.0126216 21.9182L0.0582101 26.1214L0.45336 26.7191C1.0916 27.6846 1.64119 27.8631 4.18538 27.9318L6.38209 27.991L6.87941 28.9787C7.15309 29.5219 7.62026 30.328 7.9177 30.7699L8.45852 31.5734L7.3993 33.4143C6.28067 35.3581 6.07233 36.0562 6.35492 36.9135C6.62088 37.7208 7.2557 38.1948 10.8985 40.3064C13.9492 42.0749 14.4026 42.2934 15.144 42.3526C16.5653 42.4662 17.0051 42.1031 18.4341 39.6371L19.3809 38.0029H21.5758H23.7706L24.3881 39.1469L25.0057 40.291L24.0106 41.3015C23.4632 41.8574 22.8799 42.6135 22.7145 42.9816C22.3774 43.7311 22.3164 44.9079 22.5757 45.6531L22.7444 46.1379L20.8308 48.0504L18.9173 49.963L17.9212 49.79C17.0583 49.6401 16.8101 49.6524 16.065 49.8828C15.2279 50.1418 15.0112 50.3422 7.95512 57.3865C3.76098 61.5735 0.579285 64.8672 0.406138 65.201C-0.0313335 66.0445 -0.107067 67.171 0.208637 68.1365C0.444153 68.8566 0.788666 69.2597 3.60565 72.1116C7.17922 75.7295 7.572 76.005 9.14874 75.9999C9.81682 75.9977 10.356 75.9029 10.75 75.7182C11.1496 75.5308 13.7333 73.0372 18.6454 68.0982C25.6625 61.0425 25.9559 60.7254 26.1816 59.9488C26.4572 59.0007 26.4614 58.5897 26.2039 57.7818L26.0143 57.1868L27.9351 55.2392L29.8557 53.2915L30.6705 53.5188C31.2966 53.6933 31.6518 53.7118 32.2027 53.5988L32.92 53.4515L32.9759 54.4431C33.0212 55.2462 33.1103 55.5377 33.4441 55.9762C34.1574 56.9129 34.5307 57.0277 37.0517 57.0863L39.297 57.1385L39.6504 57.8952C39.8448 58.3112 40.2962 59.092 40.6537 59.6299C41.0109 60.1679 41.3048 60.6749 41.3066 60.7567C41.3082 60.8386 40.8322 61.7374 40.2484 62.7544C39.3767 64.2727 39.1871 64.719 39.1871 65.2517C39.1871 66.1076 39.6556 66.9937 40.3409 67.434C41.9074 68.4404 47.2762 71.4355 47.7472 71.5658C48.5446 71.7863 49.4656 71.4852 50.0646 70.808C50.33 70.5081 50.9434 69.563 51.428 68.7078L52.3087 67.1528H54.4823H56.6558L57.5366 68.7078C58.0211 69.563 58.6345 70.5081 58.8999 70.808C59.5016 71.4883 60.4193 71.7864 61.2252 71.5636C61.7155 71.4279 67.7349 68.0609 68.7785 67.3385C69.3392 66.9502 69.7774 66.0348 69.7774 65.2517C69.7774 64.719 69.5878 64.2727 68.7161 62.7544C68.1324 61.7374 67.6563 60.8386 67.6579 60.7567C67.6597 60.6749 67.9536 60.1679 68.3109 59.6299C68.6683 59.092 69.1197 58.3112 69.3141 57.8952L69.6676 57.1385L71.9128 57.0863C74.4359 57.0277 74.8067 56.9132 75.524 55.9717L75.9401 55.4255L75.9833 50.9203C76.0238 46.7102 76.0078 46.3781 75.7393 45.8511C75.0964 44.5896 74.4202 44.3357 71.6795 44.3269C70.5614 44.3233 69.6096 44.2605 69.5645 44.1875C69.5194 44.1143 69.7757 43.696 70.134 43.2578C75.076 37.2144 77.0729 28.8082 75.4117 21.0416C74.7316 17.862 73.0935 14.0221 71.3577 11.5388C67.5678 6.11614 62.21 2.38753 55.916 0.792379C53.0524 0.0666475 49.0568 -0.198418 46.3212 0.156044ZM52.1102 2.67937C59.3392 3.57898 65.4219 7.29153 69.408 13.2366C74.0939 20.2256 74.7546 29.1271 71.1628 36.8781C69.0465 41.4443 64.771 45.8447 60.2197 48.1406C54.2686 51.1426 47.678 51.5129 41.1651 49.2114C37.8065 48.0245 34.8451 46.0742 32.1288 43.2605C30.3054 41.3717 29.1539 39.7515 27.9691 37.4071C22.4635 26.5146 26.065 13.1204 36.2914 6.45618C40.9968 3.38978 46.7607 2.01358 52.1102 2.67937ZM16.5961 5.34177C18.0568 7.86777 18.1695 7.9591 19.5573 7.74327C20.8457 7.54306 22.1593 7.53934 23.4903 7.73212C24.9625 7.94542 25.0814 7.85156 26.4906 5.36483C27.144 4.2119 27.7401 3.26811 27.8152 3.26751C27.9257 3.26662 32.2633 5.70337 32.4967 5.89749C32.5331 5.92783 31.9259 6.56982 31.1472 7.32411C29.5562 8.86556 28.5365 10.0665 27.4536 11.6739L26.7161 12.7688L25.7465 12.3284C24.18 11.6169 23.0215 11.4087 21.0705 11.4877C19.749 11.5412 19.1164 11.6431 18.2736 11.9379C12.5005 13.9576 9.79054 20.4817 12.4427 25.9754C14.1927 29.6001 17.8867 31.8135 21.908 31.6466L23.2653 31.5902L23.7325 33.3636C23.9895 34.3389 24.1692 35.1674 24.1319 35.2047C23.9011 35.4359 21.5891 35.5516 20.1565 35.4038C18.9975 35.284 18.4772 35.2846 18.2112 35.406C17.9717 35.5153 17.43 36.3005 16.618 37.7148C15.9413 38.8935 15.3525 39.858 15.3097 39.858C15.2668 39.858 13.7784 39.0186 12.0021 37.9928L8.77245 36.1277L10.0204 33.9395C10.7069 32.736 11.2684 31.6174 11.2684 31.4538C11.2681 31.1434 11.1621 30.9604 10.1125 29.4612C9.48315 28.5625 8.44828 26.5596 8.44828 26.2407C8.44828 26.1503 8.27602 25.9142 8.06545 25.7158C7.69525 25.3673 7.5965 25.3536 5.09299 25.3057L2.50336 25.2562L2.54301 21.5127L2.58266 17.7692L5.18135 17.6948C6.61063 17.6539 7.86409 17.566 7.96685 17.4994C8.06946 17.4329 8.48243 16.6801 8.88426 15.8266C9.28624 14.9731 9.99339 13.7557 10.4558 13.1215C11.1491 12.1707 11.2835 11.89 11.2225 11.522C11.1818 11.2764 10.6114 10.1536 9.95493 9.02665C8.89466 7.20645 8.78952 6.96028 9.01316 6.82343C11.0617 5.5698 15.102 3.29652 15.2476 3.3157C15.3529 3.32954 15.9597 4.2412 16.5961 5.34177ZM47.5029 5.06005C39.9881 5.75023 33.2867 10.4378 30.0691 17.255C25.446 27.0503 28.6314 38.5343 37.6279 44.5054C39.4403 45.7083 40.6893 46.3195 42.7331 47.0033C45.225 47.8373 46.8488 48.0955 49.5819 48.0927C52.1207 48.0901 53.6208 47.8681 55.9672 47.1472C61.3412 45.4966 66.1898 41.3789 68.7285 36.3098C72.9936 27.7935 71.2449 17.6158 64.3897 11.0563C60.7116 7.53681 56.2409 5.50911 51.1411 5.04725C49.4759 4.89643 49.2779 4.89702 47.5029 5.06005ZM52.7113 7.81973C53.4811 7.95167 54.7124 8.25912 55.4475 8.50307C56.7433 8.93309 59.5548 10.2947 59.8152 10.6184C59.987 10.8318 52.267 18.736 51.8868 18.736C51.7274 18.736 50.4096 17.5429 48.7651 15.9099C45.5416 12.7084 45.6861 12.7822 44.0709 13.5127C42.1515 14.3808 40.2058 14.8901 36.8471 15.4035C36.5566 15.448 36.2703 15.6198 36.1303 15.834C36.002 16.0301 35.4785 17.8043 34.9671 19.777C34.4462 21.7861 33.9311 23.4697 33.7959 23.6051C33.5733 23.8281 33.4542 23.8187 32.2517 23.4834C31.2982 23.2175 30.9351 23.0491 30.8979 22.8553C30.8113 22.4047 31.5971 19.9224 32.2917 18.4534C33.255 16.4153 34.4489 14.7101 36.0005 13.1558C38.7715 10.3802 42.3369 8.50351 46.1549 7.81095C47.7392 7.52358 51.007 7.52789 52.7113 7.81973ZM63.3009 13.5408C64.6034 14.9276 65.6896 16.5136 66.5154 18.2345C67.0286 19.304 67.847 21.5389 67.847 21.8712C67.847 21.9382 67.6152 21.8963 67.332 21.7777C66.2499 21.3248 64.8148 21.6184 63.9896 22.4617C63.7018 22.7557 62.7418 24.2673 61.8563 25.8207L60.2463 28.6449L59.1834 28.5109C58.2416 28.392 53.6981 28.4411 53.163 28.5759C53.0303 28.6093 52.3724 27.6169 51.3031 25.7701C50.393 24.1984 49.4551 22.7102 49.2187 22.463C48.6181 21.8353 47.6893 21.5099 46.7272 21.5902C46.0307 21.6485 45.3505 21.9986 40.5978 24.746C37.6576 26.4457 35.0417 27.9959 34.7845 28.1908C34.0395 28.7557 33.6477 29.7279 33.7181 30.8367C33.7735 31.7076 33.8862 31.9558 35.4995 34.7592L37.2218 37.752L36.5339 38.7233C36.1555 39.2576 35.8125 39.694 35.7717 39.6931C35.6211 39.6902 34.1535 37.8166 33.4725 36.7581C31.6889 33.9858 30.6335 30.5704 30.539 27.2653C30.5176 26.5159 30.549 25.8532 30.609 25.7925C30.6689 25.732 31.2035 25.8265 31.797 26.0027C32.3904 26.1788 33.1433 26.3213 33.47 26.3193C34.5804 26.3123 35.878 25.4605 36.2981 24.4628C36.4015 24.2173 36.838 22.6443 37.2684 20.9672C37.6986 19.2901 38.0673 17.8952 38.0878 17.8674C38.1081 17.8395 38.7756 17.6905 39.5711 17.5363C41.3359 17.1938 42.3027 16.9237 43.9103 16.3241L45.1438 15.8641L47.5485 18.2489C48.871 19.5605 50.187 20.7562 50.4729 20.9058C51.2094 21.2913 52.5967 21.2704 53.3748 20.8616C53.7318 20.6742 55.5896 18.8833 57.9583 16.4433C60.1489 14.1865 61.9935 12.34 62.0572 12.34C62.1211 12.34 62.6808 12.8804 63.3009 13.5408ZM23.4084 14.1874C23.8367 14.3016 24.4798 14.5369 24.8377 14.7104L25.4881 15.0259L24.8998 16.3928C23.5535 19.521 22.802 23.4657 22.8816 26.9876C22.9331 29.2692 23.0136 29.1425 21.5101 29.1462C19.7308 29.1506 17.8423 28.3916 16.4729 27.1217C15.4373 26.1613 14.7964 25.2049 14.3838 24.0045C12.7146 19.1466 16.3452 13.9907 21.4417 13.9818C22.0951 13.9806 22.9802 14.0732 23.4084 14.1874ZM47.6155 24.4999C47.7702 24.7248 48.6466 26.2235 49.5632 27.8301C50.4795 29.4367 51.3531 30.8633 51.5045 31.0004C51.8331 31.2984 52.223 31.3143 53.8844 31.0974C55.5072 30.8856 58.0682 30.9032 59.7177 31.1374C60.7133 31.2789 61.1132 31.2816 61.4254 31.1489C61.7402 31.0152 62.2715 30.2097 63.7633 27.6046C65.1788 25.1329 65.7817 24.2105 66.0231 24.1473C66.2474 24.0885 66.6737 24.2466 67.3596 24.6427L68.3667 25.2243L68.3496 27.0747C68.3098 31.3684 66.7713 35.4203 63.8517 38.9201L63.0883 39.8353L61.8666 39.2686C60.1715 38.4822 59.0056 38.2104 56.9227 38.1161C54.8494 38.0221 53.3562 38.2622 51.4624 38.9937C49.1223 39.8977 46.4504 42.0964 45.2323 44.1203C44.6708 45.0532 44.6625 45.0535 42.5283 44.2109C40.9649 43.5934 39.915 43.0332 38.6289 42.13L37.6995 41.4772L38.1726 40.7791C38.4329 40.3952 38.9458 39.6946 39.3124 39.2222C39.7582 38.6478 39.979 38.2177 39.979 37.924C39.979 37.6329 39.3417 36.3742 38.0897 34.1934C36.7936 31.9355 36.2146 30.7871 36.246 30.5358C36.2846 30.2247 37.0761 29.7127 41.4888 27.1452C44.3474 25.482 46.832 24.1142 47.0102 24.1059C47.2076 24.0968 47.4441 24.2506 47.6155 24.4999ZM58.5551 40.8251C59.7275 41.074 60.8676 41.48 60.8676 41.6489C60.8676 41.836 58.5402 43.2739 57.3802 43.8034C55.9084 44.4753 54.2321 44.986 52.5628 45.2711C51.0671 45.5267 47.5029 45.6 47.5029 45.3752C47.5029 45.3009 47.795 44.881 48.1519 44.4422C50.5859 41.4491 54.7208 40.0115 58.5551 40.8251ZM30.5569 45.352C31.2606 46.0599 32.429 47.0995 33.1531 47.6624L34.4698 48.6857L33.2109 49.9242C32.225 50.8942 31.86 51.1626 31.5271 51.1626C31.1718 51.1626 30.5943 50.6542 28.0166 48.0723C24.2532 44.3025 24.3515 44.5817 26.1405 42.7457L27.3495 41.5049L28.3134 42.785C28.8437 43.489 29.8532 44.6442 30.5569 45.352ZM67.8468 46.44C68.1042 46.7587 68.2427 46.7782 70.7663 46.849L73.4156 46.9234L73.4553 50.7536L73.4949 54.5838H70.9267C68.9438 54.5838 68.2897 54.6321 68.0564 54.7959C67.89 54.9125 67.5644 55.4922 67.3326 56.0842C67.1006 56.6761 66.5035 57.758 66.0053 58.4885C64.7401 60.3441 64.6787 60.4747 64.8463 60.9504C64.9241 61.1712 65.494 62.2219 66.1128 63.2854C66.9719 64.7617 67.1958 65.258 67.0598 65.3835C66.8163 65.6081 60.897 69.0121 60.7499 69.0121C60.685 69.0121 60.0855 68.0532 59.4177 66.8812C58.5842 65.4184 58.0847 64.6961 57.8249 64.5776C57.5374 64.4464 57.0903 64.4467 55.9644 64.5791C54.832 64.7121 54.1326 64.7121 53.0001 64.5791C51.8922 64.4488 51.4247 64.4474 51.1484 64.5734C50.9007 64.6866 50.3751 65.446 49.5541 66.8772C48.8805 68.0514 48.2818 69.0121 48.2236 69.0121C48.0815 69.0121 42.1294 65.5904 41.9102 65.3827C41.7809 65.26 42.0512 64.6792 42.9895 63.0623C43.9328 61.4373 44.2243 60.8096 44.1721 60.5162C44.134 60.302 43.7247 59.5992 43.2625 58.9544C42.375 57.7159 41.9258 56.8998 41.4873 55.7288C41.0697 54.614 40.9789 54.5838 38.0403 54.5838H35.4747V52.9167V51.2495L36.0246 50.6855C36.3271 50.3752 36.663 50.1214 36.7712 50.1214C36.8796 50.1214 37.3646 50.3219 37.8493 50.5669C39.3035 51.3023 40.93 51.9015 42.7429 52.3697C43.686 52.6132 44.4948 52.8597 44.5404 52.9172C44.5859 52.9748 44.7694 53.4935 44.948 54.0699C46.2046 58.1222 50.2045 60.9885 54.5874 60.9773C58.3481 60.9677 61.8979 58.7119 63.5556 55.2783C64.3768 53.5772 64.6398 52.2229 64.5406 50.2055L64.4595 48.5575L65.2251 47.9973C65.6463 47.6893 66.3249 47.1401 66.7333 46.7769C67.1416 46.4138 67.4985 46.1142 67.5262 46.1109C67.554 46.1078 67.6982 46.2558 67.8468 46.44ZM26.1565 53.4295L24.3391 55.25L22.5562 53.4689L20.7734 51.6877L22.591 49.8626L24.4087 48.0375L26.1914 49.8232L27.9741 51.6089L26.1565 53.4295ZM62.0556 50.9083C62.0556 52.6876 61.1738 54.7471 59.84 56.0832C56.8959 59.0322 52.0901 59.0261 49.1383 56.0693C48.431 55.3608 47.3531 53.686 47.3552 53.2986C47.3555 53.2283 48.4748 53.1664 49.8425 53.1612C52.5536 53.1509 53.6853 53.0052 56.2307 52.3388C58.0318 51.8673 59.6364 51.2715 60.9867 50.5733C61.4521 50.3326 61.8829 50.1326 61.9442 50.1286C62.0056 50.1247 62.0556 50.4754 62.0556 50.9083ZM20.7588 55.2427C23.5975 58.0766 23.8028 58.3181 23.8028 58.8193C23.8028 59.3273 23.5216 59.6388 18.6877 64.4822L13.5726 69.6076L10.0081 66.0363L6.44357 62.4651L11.5712 57.3346C16.3093 52.5936 16.7372 52.2039 17.2068 52.2039C17.6692 52.2039 17.9877 52.4765 20.7588 55.2427ZM10.7653 72.418C9.67575 73.5177 9.31208 73.6849 8.64637 73.392C8.41501 73.2902 6.97073 71.9426 5.43706 70.3973C1.93714 66.8711 1.98317 66.9944 3.55991 65.3655L4.64899 64.2404L8.21707 67.8144L11.7851 71.3885L10.7653 72.418Z" fill="#323031"/>
</svg>
