<svg width="81" height="84" viewBox="0 0 81 84" fill="none" xmlns="http://www.w3.org/2000/svg">
<path fill-rule="evenodd" clip-rule="evenodd" d="M34.1321 0.205663C29.6652 1.15054 24.4271 2.51771 23.3594 3.01748C21.8542 3.72207 20.1632 5.35628 19.5208 6.72723C18.6407 8.60549 18.5795 9.13595 18.6037 14.6936L18.6258 19.8162L18.1121 20.438C17.3055 21.4149 17.0768 22.4721 17.1486 24.8913C17.1965 26.4996 17.2782 27.0983 17.5106 27.5431C18.1098 28.6901 19.1287 29.4875 20.3258 29.7465C20.8169 29.8528 20.8426 29.9027 21.1125 31.2817C21.8275 34.9329 23.8647 38.1883 26.8086 40.3847L27.9444 41.232L27.8816 43.6198C27.8036 46.587 27.6819 46.91 26.6413 46.91C25.8729 46.91 12.0406 50.6916 10.026 51.4525C6.34839 52.8414 3.65426 56.1163 2.82651 60.2043C2.06681 63.9568 2.09527 65.0048 2.9631 65.2234C3.99665 65.4837 4.54663 64.9262 4.75766 63.4047C5.07044 61.1493 5.56153 59.2215 6.10693 58.1084C7.14882 55.9819 9.15392 54.2926 11.5655 53.509C13.2209 52.9712 18.7601 51.4545 18.8133 51.5246C19.5025 52.4333 25.9413 59.6475 26.3259 59.9418C27.2577 60.6548 28.0704 60.9187 29.3063 60.9093C30.2734 60.902 30.9402 60.7339 33.5974 59.8271L36.7433 58.7534L39.8137 59.8315C42.4331 60.7511 43.0542 60.9113 44.0418 60.9216C45.0307 60.932 45.3565 60.8562 46.2751 60.4025C47.2766 59.9078 47.6005 59.5843 50.9933 55.6885C52.9967 53.3879 54.6742 51.5055 54.7206 51.5055C55.0556 51.5055 61.942 53.541 61.942 53.64C61.942 53.7093 61.8321 53.9773 61.6976 54.236C61.5633 54.4944 61.4529 55.0482 61.4523 55.4666L61.4513 56.2271L60.5412 56.5976L59.6312 56.9682L59.0084 56.3581C58.2708 55.6355 57.3995 55.3816 56.4911 55.6246C55.7393 55.8257 53.4049 57.9864 52.9297 58.9209C52.3774 60.007 52.5689 61.0214 53.5128 62.0096L54.0614 62.5841L53.715 63.4259L53.3687 64.2677L52.3797 64.3701C51.2953 64.4825 50.7714 64.7832 50.2046 65.6188C49.8688 66.1138 49.8365 66.3513 49.8365 68.3285C49.8365 70.3057 49.8688 70.5432 50.2046 71.0382C50.7968 71.9112 51.3643 72.2388 52.4173 72.3151L53.3666 72.3841L53.7103 73.2285L54.0538 74.0729L53.4276 74.7557C52.4122 75.8629 52.3599 77.1442 53.2832 78.2969L53.778 78.9147H28.5705H3.36275L2.96785 78.5185C2.75077 78.3005 2.52845 77.9445 2.47414 77.7272C2.41983 77.5099 2.63773 75.7933 2.95836 73.9124C3.27883 72.0315 3.54122 70.2202 3.54122 69.8874C3.54122 69.1509 3.09266 68.6842 2.38498 68.6842C1.41638 68.6842 1.29631 68.9881 0.577339 73.2635C0.137288 75.88 -0.0514919 77.4334 0.0119801 77.9166C0.197325 79.3286 1.40918 80.798 2.71052 81.1893C3.16742 81.3265 11.0882 81.3766 32.3744 81.3766H61.4148L61.5213 81.9463C61.6551 82.661 62.336 83.4864 63.0333 83.7787C63.3834 83.9255 64.2313 84.0016 65.4948 84C67.1871 83.9975 67.4999 83.9525 68.0596 83.6307C68.8641 83.1678 69.3035 82.3548 69.3035 81.329V80.5377L70.2047 80.1238L71.1057 79.7099L71.8435 80.3615C72.2492 80.7197 72.8242 81.0587 73.1211 81.1145C74.1898 81.3157 74.6926 81.0682 76.2237 79.5874C77.8627 78.0021 78.1372 77.5761 78.1372 76.6169C78.1372 75.8435 77.8591 75.2279 77.253 74.6599C76.7438 74.1824 76.7363 74.0698 77.1498 73.1018C77.4608 72.3741 77.4941 72.3496 78.1786 72.3496C79.1323 72.3496 80.2531 71.7588 80.6691 71.0366C80.9548 70.5404 81 70.1715 81 68.3285C81 66.4209 80.9622 66.134 80.6432 65.6204C80.1691 64.8571 79.467 64.4669 78.361 64.3524C77.4677 64.26 77.4443 64.2441 77.1393 63.5306C76.7371 62.5892 76.7457 62.4726 77.253 61.9972C77.8591 61.4291 78.1372 60.8135 78.1372 60.0401C78.1372 59.0951 77.8666 58.6665 76.3077 57.1431C75.317 56.1751 74.7573 55.7563 74.2834 55.6282C73.4051 55.3909 72.5633 55.6363 71.7614 56.3632L71.1342 56.9316L70.4232 56.6545C69.3949 56.2536 69.3035 56.1429 69.3035 55.2988C69.3035 53.7501 68.1436 52.6544 66.504 52.6544C65.9395 52.6544 65.4986 52.5251 64.9347 52.1942C64.5033 51.9411 63.7088 51.5714 63.1689 51.3726C61.2074 50.6503 47.476 46.91 46.7855 46.91C45.7236 46.91 45.5833 46.5199 45.5833 43.5685V41.1956L46.6875 40.3257C49.5526 38.0688 51.2555 35.4743 52.1341 32.0275C52.31 31.3377 52.4539 30.5773 52.4539 30.338C52.4539 29.9538 52.5488 29.8784 53.2662 29.6941C54.4173 29.398 55.2765 28.7146 55.7854 27.69C56.1908 26.8738 56.2165 26.6822 56.2165 24.4693C56.2165 21.8193 56.0756 21.2728 55.1464 20.3159C54.6254 19.7794 54.5953 19.6932 54.7455 19.1682C54.9673 18.392 54.9529 13.4431 54.727 12.7927C54.4252 11.924 53.4037 11.6546 52.7811 12.2793C52.4875 12.5739 52.4539 12.8263 52.4539 14.7412C52.4539 16.5428 52.4152 16.8748 52.2048 16.8748C52.0677 16.8748 51.0924 16.6216 50.0373 16.3119C41.2946 13.7464 31.6673 13.7968 22.875 16.454L21.0243 17.0135L21.0755 13.0418L21.1269 9.0703L21.6656 7.97328C22.3072 6.66667 23.5107 5.52911 24.7402 5.06693C25.1979 4.89476 27.6272 4.25516 30.1386 3.64543C36.4171 2.12102 36.4206 2.12102 43.1834 3.70681C49.5108 5.19051 50.0499 5.43966 51.4824 7.54113C52.1776 8.56102 52.6902 8.80885 53.3987 8.46812C53.6396 8.35225 53.9099 8.04911 53.999 7.79455C54.4703 6.45002 51.4232 3.30355 48.9383 2.56876C48.6675 2.48883 46.2008 1.89978 43.4566 1.25985C37.9434 -0.0255915 36.1721 -0.225826 34.1321 0.205663ZM41.6572 17.1291C44.5181 17.458 47.4117 18.0557 49.9547 18.8429C51.0741 19.1895 52.0188 19.502 52.054 19.5373C52.2077 19.6916 51.7379 20.8907 51.3846 21.2452C50.8824 21.7489 50.2828 21.7456 48.3379 21.2278C40.5646 19.1582 32.493 19.1574 25.0541 21.2255C23.2602 21.7243 22.4668 21.7479 22.036 21.3156C21.6429 20.9212 21.2584 19.7072 21.4675 19.5201C21.9949 19.0484 28.3127 17.5251 31.024 17.2161C31.8787 17.1186 32.7989 17.013 33.0688 16.9814C34.5051 16.8135 39.6863 16.9026 41.6572 17.1291ZM40.5356 22.2963C42.9176 22.5343 45.8653 23.0708 47.8344 23.6244C50.5383 24.3848 51.8856 24.2234 53.1492 22.9882L53.7626 22.3885L53.7574 24.4324C53.754 25.7797 53.6843 26.565 53.5529 26.7367C53.2133 27.1805 52.6727 27.3789 51.8029 27.3789C50.7281 27.3789 50.1649 27.8694 50.1616 28.8077C50.157 30.1112 49.5339 32.4833 48.7961 34.0046C46.5798 38.5755 41.0934 41.6614 35.8655 41.2777C30.9989 40.9204 26.636 38.1038 24.6327 34.0261C23.9234 32.5819 23.3353 30.4983 23.3353 29.4287C23.3353 28.4978 23.0669 27.7907 22.6322 27.5774C22.4341 27.48 21.8444 27.3707 21.3217 27.3343C19.8157 27.2296 19.6669 26.9919 19.6 24.5847C19.57 23.5038 19.597 22.6193 19.6602 22.6193C19.7233 22.6193 20.0371 22.85 20.3572 23.1322C21.6967 24.3121 22.7301 24.3897 25.9527 23.5525C30.8875 22.2705 35.9311 21.8361 40.5356 22.2963ZM33.6224 43.4594C36.3556 44.0183 39.2465 43.8269 41.9277 42.9093L43.098 42.5088L43.1546 44.6684C43.207 46.6659 43.2449 46.888 43.6611 47.6282C43.9085 48.0684 44.111 48.4882 44.111 48.5614C44.111 48.6345 42.4445 50.2859 40.4078 52.2313L36.7049 55.7682L33.987 53.1718C32.4923 51.7439 30.809 50.1385 30.2463 49.6043L29.2232 48.6333L29.7488 47.5862C30.2379 46.6116 30.279 46.3987 30.3415 44.5188L30.4084 42.4988L31.2032 42.8131C31.6404 42.9859 32.729 43.2767 33.6224 43.4594ZM30.3593 53.099C32.5116 55.1492 34.2403 56.8789 34.2008 56.9431C34.0575 57.1758 29.9739 58.4437 29.3678 58.4437C28.2098 58.4437 27.8315 58.1318 24.8544 54.7242C23.2684 52.9088 21.8359 51.2707 21.671 51.0841C21.3716 50.7451 21.3749 50.7435 23.7028 50.0712C24.9853 49.7008 26.1271 49.3921 26.2402 49.3849C26.3532 49.3778 28.2068 51.0491 30.3593 53.099ZM49.4937 50.024C50.7872 50.3828 51.8798 50.7107 51.9218 50.7529C52.0018 50.833 46.6171 57.0095 45.8051 57.7691C45.2471 58.2912 44.2171 58.5907 43.5384 58.4286C42.5381 58.1894 39.2033 57.0103 39.2033 56.8958C39.2033 56.7666 46.9203 49.3762 47.0578 49.3735C47.104 49.3726 48.2002 49.6654 49.4937 50.024ZM66.9143 56.0642C67.0748 57.4868 67.4649 57.9981 68.8968 58.6618C70.9783 59.6267 71.7614 59.6086 72.9389 58.5687L73.667 57.9257L74.6988 58.9702L75.7307 60.0147L75.1369 60.7106C74.1604 61.8552 74.1391 62.8382 75.0485 64.8175C75.7074 66.2515 76.2311 66.6579 77.5647 66.7693L78.5462 66.8514V68.3285V69.8056L77.6465 69.8938C76.2007 70.0356 75.7374 70.3809 75.0811 71.8059C74.136 73.8583 74.1485 74.7879 75.1369 75.9464L75.7307 76.6423L74.6988 77.6868L73.667 78.7313L72.9389 78.0883C71.7687 77.055 70.9917 77.0569 68.6953 78.0993C67.4791 78.6514 67.0684 79.2265 66.9143 80.5929L66.8075 81.5407H65.3563H63.9051V80.8369C63.9051 80.4335 63.748 79.8207 63.537 79.4008C63.2177 78.7655 62.9978 78.584 61.8777 78.0302C59.8218 77.0139 58.87 77.0684 57.6007 78.2751L57.1038 78.7474L56.0604 77.6913L55.0169 76.6351L55.6071 75.9796C55.9317 75.6192 56.286 75.027 56.3946 74.6636C56.5714 74.0711 56.5469 73.8793 56.1568 72.806C55.3282 70.5267 54.6712 69.8894 53.1492 69.8884L52.2904 69.8877V68.3285V66.7693L53.1492 66.7687C54.6712 66.7677 55.3282 66.1304 56.1568 63.851C56.5469 62.7778 56.5714 62.5859 56.3946 61.9934C56.286 61.63 55.931 61.037 55.6056 60.6758L55.0141 60.0188L56.0247 59.0048C56.7874 58.2397 57.091 58.0309 57.2618 58.1538C57.3861 58.2434 57.7668 58.5384 58.1074 58.8092C58.6294 59.2243 58.871 59.3016 59.6471 59.3016C60.396 59.3016 60.8085 59.1793 61.8622 58.645C63.4269 57.8517 63.7389 57.4581 63.8593 56.1262L63.9506 55.1163H65.379H66.8075L66.9143 56.0642ZM64.0271 62.5058C61.9625 63.0285 60.2394 64.7281 59.6616 66.811C59.3515 67.93 59.5031 69.803 59.9854 70.8076C61.599 74.169 65.7132 75.3037 68.763 73.2285C71.7732 71.1802 72.198 66.7954 69.6406 64.1687C68.3002 62.7917 65.8104 62.0541 64.0271 62.5058ZM66.7679 65.106C69.4682 66.34 69.5847 70.1305 66.9627 71.4415C64.5925 72.6265 61.9492 70.9852 61.9492 68.3285C61.9492 65.8028 64.5241 64.0807 66.7679 65.106ZM19.2514 65.6662C18.9316 65.7793 18.5214 66.1097 18.3107 66.4243C17.9701 66.9323 17.9369 67.1675 17.9369 69.0671C17.9369 70.9673 17.9701 71.2017 18.3111 71.7098C18.9356 72.6413 19.3587 72.7015 24.8878 72.6455C29.2495 72.6014 29.8442 72.5636 30.2199 72.3074C30.9782 71.7904 31.1057 71.3238 31.1057 69.0671C31.1057 66.8103 30.9782 66.3437 30.2199 65.8267C29.8425 65.5694 29.26 65.5344 24.8076 65.5021C21.2156 65.476 19.6594 65.5219 19.2514 65.6662ZM28.6519 69.0671V70.1339L24.5213 70.1777L20.3908 70.2215V69.0671V67.9126L24.5213 67.9564L28.6519 68.0003V69.0671Z" fill="#323031"/>
</svg>
