<svg width="94" height="56" viewBox="0 0 94 56" fill="none" xmlns="http://www.w3.org/2000/svg">
<path fill-rule="evenodd" clip-rule="evenodd" d="M43.7855 31.4963L43.9591 15.874L48.5166 15.9947L48.3431 31.6171L43.7855 31.4963Z" fill="#323031"/>
<path fill-rule="evenodd" clip-rule="evenodd" d="M37.299 35.3957C37.2989 35.3949 37.2988 35.394 35.0329 35.6054C32.767 35.8167 32.7669 35.8157 32.7668 35.8147L32.7665 35.8123L32.7659 35.8064L32.7643 35.7904L32.7596 35.7416C32.7559 35.7018 32.7512 35.6474 32.7458 35.5794C32.7351 35.4434 32.7221 35.2526 32.7109 35.0147C32.6885 34.5396 32.6729 33.8721 32.6977 33.0742C32.7469 31.4919 32.9566 29.3297 33.6256 27.1163C34.2937 24.9055 35.4549 22.5304 37.4824 20.6696C39.5306 18.7898 42.3149 17.573 45.9557 17.4447C45.9855 17.4418 46.0193 17.4387 46.057 17.4357C46.1794 17.4257 46.3436 17.4156 46.5437 17.411C46.9427 17.4017 47.4917 17.4138 48.1412 17.4935C49.4339 17.6521 51.1809 18.0862 52.9309 19.2049C56.5965 21.548 59.5339 26.38 59.382 35.4919L54.8248 35.3452C54.9591 27.2944 52.4187 24.2883 50.5349 23.0841C49.5103 22.4291 48.4648 22.1621 47.6585 22.0632C47.2586 22.0141 46.9316 22.0082 46.7169 22.0132C46.6102 22.0157 46.5331 22.0208 46.491 22.0242C46.4762 22.0254 46.4659 22.0264 46.4601 22.027L46.3641 22.0397L46.2501 22.0431C43.556 22.1245 41.7903 22.9824 40.5752 24.0975C39.3225 25.2472 38.5024 26.8137 37.9866 28.5205C37.4715 30.2247 37.2947 31.956 37.2533 33.2877C37.2328 33.9468 37.2459 34.4916 37.2635 34.8644C37.2723 35.0505 37.2822 35.1926 37.2893 35.2835C37.2929 35.329 37.2958 35.3615 37.2975 35.3802L37.2991 35.397L37.299 35.3957ZM37.2993 35.3987C37.2993 35.3993 37.2993 35.399 37.2992 35.3979L37.2993 35.3987Z" fill="#323031"/>
<path fill-rule="evenodd" clip-rule="evenodd" d="M0 1.13412C0 0.507761 0.507761 0 1.13412 0H92.1024C92.7288 0 93.2366 0.507761 93.2366 1.13412V54.7037C93.2366 55.33 92.7288 55.8378 92.1024 55.8378H1.13412C0.507761 55.8378 0 55.33 0 54.7037V1.13412ZM2.26823 2.26823V53.5696H90.9683V2.26823H2.26823Z" fill="#323031"/>
<path fill-rule="evenodd" clip-rule="evenodd" d="M46.0452 9.52653C35.8982 9.52653 27.6725 17.7523 27.6725 27.8992C27.6725 38.0462 35.8982 46.2719 46.0452 46.2719C56.1921 46.2719 64.4178 38.0462 64.4178 27.8992C64.4178 17.7523 56.1921 9.52653 46.0452 9.52653ZM25.4042 27.8992C25.4042 16.4996 34.6455 7.2583 46.0452 7.2583C57.4448 7.2583 66.6861 16.4996 66.6861 27.8992C66.6861 39.2989 57.4448 48.5401 46.0452 48.5401C34.6455 48.5401 25.4042 39.2989 25.4042 27.8992Z" fill="#323031"/>
<path fill-rule="evenodd" clip-rule="evenodd" d="M76.3168 4.82129C76.9431 4.82129 77.4509 5.32905 77.4509 5.95541C77.4509 11.204 81.7413 15.2674 86.7514 15.2674C87.3777 15.2674 87.8855 15.7751 87.8855 16.4015C87.8855 17.0278 87.3777 17.5356 86.7514 17.5356C80.5242 17.5356 75.1826 12.4921 75.1826 5.95541C75.1826 5.32905 75.6904 4.82129 76.3168 4.82129Z" fill="#323031"/>
<path fill-rule="evenodd" clip-rule="evenodd" d="M5.35114 38.9006C5.35114 38.2742 5.8589 37.7665 6.48525 37.7665C12.7314 37.7665 17.7864 42.8288 17.7864 49.0788C17.7864 49.7052 17.2787 50.2129 16.6523 50.2129C16.0259 50.2129 15.5182 49.7052 15.5182 49.0788C15.5182 44.0792 11.4764 40.0347 6.48525 40.0347C5.8589 40.0347 5.35114 39.527 5.35114 38.9006Z" fill="#323031"/>
<path fill-rule="evenodd" clip-rule="evenodd" d="M16.9199 4.82129C17.5462 4.82129 18.054 5.32905 18.054 5.95541C18.054 12.4921 12.7124 17.5356 6.48525 17.5356C5.8589 17.5356 5.35114 17.0278 5.35114 16.4015C5.35114 15.7751 5.8589 15.2674 6.48525 15.2674C11.4954 15.2674 15.7857 11.204 15.7857 5.95541C15.7857 5.32905 16.2935 4.82129 16.9199 4.82129Z" fill="#323031"/>
<path fill-rule="evenodd" clip-rule="evenodd" d="M75.4502 49.0788C75.4502 42.8288 80.5052 37.7665 86.7514 37.7665C87.3777 37.7665 87.8855 38.2742 87.8855 38.9006C87.8855 39.527 87.3777 40.0347 86.7514 40.0347C81.7603 40.0347 77.7184 44.0792 77.7184 49.0788C77.7184 49.7052 77.2107 50.2129 76.5843 50.2129C75.958 50.2129 75.4502 49.7052 75.4502 49.0788Z" fill="#323031"/>
</svg>
