<svg width="84" height="84" viewBox="0 0 84 84" fill="none" xmlns="http://www.w3.org/2000/svg">
<path fill-rule="evenodd" clip-rule="evenodd" d="M0.411074 0.407957C-0.450308 1.26245 -0.450308 1.26262 5.41982 7.10809C8.39795 10.0735 11.0155 12.5709 11.2369 12.6576C12.0645 12.9821 13.1012 12.0438 12.8348 11.2113C12.7819 11.0456 10.2616 8.45652 7.23417 5.45766C1.2665 -0.453592 1.27378 -0.448178 0.411074 0.407957ZM17.1493 0.187485C16.469 0.580201 16.488 1.04657 17.3084 4.07725C17.785 5.83824 18.2076 7.07479 18.3971 7.26278C18.8557 7.71784 19.8011 7.59431 20.229 7.02312L20.5633 6.57725L19.7606 3.60776C19.1082 1.19323 18.8823 0.579053 18.5527 0.321671C18.1048 -0.0279026 17.6051 -0.0756389 17.1493 0.187485ZM65.4465 0.321671C65.1169 0.579053 64.891 1.19323 64.2386 3.60776L63.4359 6.57725L63.7702 7.02312C64.1553 7.53706 65.0454 7.69897 65.5343 7.34382C65.9199 7.0638 67.5006 1.45044 67.3556 0.876625C67.1475 0.0539543 66.1581 -0.233611 65.4465 0.321671ZM76.765 5.45766C73.7376 8.45652 71.2173 11.0456 71.1644 11.2113C70.898 12.0438 71.9347 12.9821 72.7623 12.6576C72.9837 12.5709 75.6014 10.0735 78.5794 7.10809C84.4495 1.26262 84.4495 1.26245 83.5881 0.407957C82.7254 -0.448178 82.7327 -0.453592 76.765 5.45766ZM40.033 8.13893C38.7644 8.47735 37.6418 9.12696 36.4059 10.2377C34.6342 11.8302 33.0217 12.2802 30.9812 11.7515C29.5906 11.3911 27.562 11.4117 26.3081 11.799C23.8182 12.5679 22.1184 14.3345 21.2254 17.0814C20.4604 19.4344 19.2626 20.6875 17.2202 21.2713C13.4505 22.3487 11.2478 25.105 11.2478 28.7446C11.2478 29.4678 11.3672 30.5131 11.5131 31.0676C12.046 33.0922 11.5925 34.6921 9.98745 36.45C8.8412 37.7055 8.21228 38.7922 7.86392 40.1193C7.17333 42.7498 7.8879 45.2505 9.98745 47.55C11.5925 49.3079 12.046 50.9078 11.5131 52.9324C11.1499 54.3122 11.1707 56.325 11.5611 57.5691C12.3292 60.0179 14.4275 61.9728 17.0357 62.6696C19.2333 63.2567 20.5755 64.5879 21.1669 66.7671C21.8697 69.357 23.8392 71.4387 26.3081 72.201C27.562 72.5883 29.5906 72.6089 30.9812 72.2485C32.2007 71.9326 33.5491 72.0151 34.5831 72.469C34.9845 72.6452 35.8193 73.2352 36.4381 73.7802C37.7689 74.9523 38.7756 75.5259 40.1041 75.8693C42.7553 76.5545 45.2757 75.8455 47.5933 73.7623C49.365 72.1698 50.9775 71.7198 53.018 72.2485C54.438 72.6165 56.4291 72.5884 57.7556 72.1819C60.1258 71.4556 62.144 69.3035 62.832 66.7685C63.4615 64.4488 64.5855 63.3993 67.3781 62.523C69.5304 61.8478 71.5129 60.0525 72.2814 58.083C72.7835 56.7964 72.8815 54.5217 72.5013 52.9823C71.9672 50.8199 72.3792 49.3381 74.0117 47.55C76.1113 45.2505 76.8259 42.7498 76.1353 40.1193C75.7869 38.7922 75.158 37.7055 74.0117 36.45C72.4067 34.6921 71.9532 33.0922 72.4861 31.0676C72.8247 29.7813 72.8261 27.7137 72.4894 26.5689C71.7586 24.0853 69.9351 22.2997 67.2376 21.4258C66.5572 21.2055 65.7721 20.9081 65.4928 20.7648C64.2034 20.1032 63.2777 18.8738 62.8318 17.231C62.1295 14.643 60.1592 12.5612 57.6911 11.799C56.4372 11.4117 54.4086 11.3911 53.018 11.7515C51.7947 12.0684 50.4496 11.9847 49.406 11.5266C48.9989 11.3479 48.1564 10.7438 47.5339 10.1839C46.9113 9.62417 46.0449 8.9867 45.6088 8.76738C43.8819 7.8991 41.8076 7.66534 40.033 8.13893ZM44.1985 10.8161C44.616 11.0167 45.4893 11.6537 46.1392 12.2319C46.7889 12.81 47.7044 13.4613 48.1734 13.6791C49.8269 14.4472 51.7491 14.6365 53.4075 14.1949C56.8316 13.283 59.6174 14.7853 60.4634 17.9998C60.8427 19.4409 61.4572 20.4897 62.5681 21.592C63.6791 22.6942 64.7361 23.304 66.1885 23.6803C68.7494 24.3438 70.2686 26.1873 70.2678 28.6306C70.2676 29.2621 70.1577 30.1849 70.0234 30.6811C69.5784 32.3266 69.7691 34.2338 70.5432 35.8743C70.7628 36.3397 71.4192 37.248 72.0018 37.8927C73.5108 39.5625 73.8261 40.2723 73.8261 42C73.8261 43.7264 73.5106 44.4377 72.0074 46.101C71.4278 46.7425 70.7932 47.5958 70.5973 47.9974C69.7748 49.6831 69.5653 51.6257 70.0234 53.3189C70.9425 56.7162 69.4284 59.4803 66.1885 60.3197C63.3683 61.0504 61.1922 63.2064 60.4641 65.9911C59.7981 68.5386 57.9408 70.0484 55.4742 70.0476C54.8377 70.0474 53.9077 69.9383 53.4075 69.8051C51.7491 69.3635 49.8269 69.5528 48.1734 70.3209C47.7044 70.5387 46.7889 71.19 46.1392 71.7681C44.4563 73.2653 43.7409 73.5781 41.9996 73.5781C40.2659 73.5781 39.5419 73.2645 37.8959 71.7999C35.6679 69.8178 33.1384 69.127 30.5917 69.8051C27.1676 70.717 24.3818 69.2147 23.5358 66.0002C23.1565 64.5591 22.542 63.5103 21.4311 62.408C20.3427 61.3281 19.218 60.6704 17.9227 60.3561C16.1891 59.9357 14.9668 59.0075 14.2363 57.5569C13.8109 56.7124 13.7281 56.3571 13.7298 55.3842C13.7307 54.7446 13.8415 53.8151 13.9758 53.3189C14.4208 51.6734 14.23 49.7662 13.456 48.1257C13.2364 47.6603 12.58 46.752 11.9974 46.1073C10.4884 44.4375 10.1731 43.7277 10.1731 42C10.1731 40.2723 10.4884 39.5625 11.9974 37.8927C12.58 37.248 13.2364 36.3397 13.456 35.8743C14.23 34.2338 14.4208 32.3266 13.9758 30.6811C13.8415 30.1849 13.7307 29.2554 13.7298 28.6158C13.7281 27.6453 13.8113 27.2871 14.2315 26.4524C14.9537 25.0185 16.2129 24.0216 17.6957 23.7096C20.3918 23.1425 22.9938 20.5609 23.5654 17.8858C23.8798 16.4145 24.8846 15.1652 26.3297 14.4486C27.1709 14.0316 27.532 13.9491 28.5101 13.9508C29.1548 13.9518 30.0915 14.0617 30.5917 14.1949C33.0432 14.8478 35.7213 14.1709 37.6669 12.4065C38.9094 11.2797 39.5684 10.8361 40.4025 10.5654C41.3983 10.2423 43.2596 10.3651 44.1985 10.8161ZM38.0316 15.3704C25.0839 17.3937 15.5763 27.8258 14.9453 40.7013C14.6528 46.6701 16.256 52.2303 19.7421 57.3379C20.8812 59.0071 24.3109 62.5135 25.9228 63.6573C32.6793 68.4513 40.749 70.0294 48.5511 68.0824C53.5385 66.8378 57.374 64.659 61.0983 60.9547C64.0128 58.0559 65.8078 55.3939 67.1888 51.9221C72.6635 38.1591 66.0021 22.6639 52.2074 17.0735C50.4112 16.3456 47.2403 15.5136 45.6062 15.3415C44.5541 15.2308 44.4794 15.2464 44.0583 15.6642C43.6971 16.0226 43.6352 16.1983 43.7209 16.6232C43.7784 16.9093 43.9257 17.2424 44.0479 17.3638C44.1702 17.4852 45.1915 17.7536 46.3176 17.9606C53.241 19.2326 59.0488 23.0987 62.8617 28.9736C65.4269 32.9259 66.8178 38.189 66.586 43.0663C66.2899 49.2976 63.8311 54.8045 59.3679 59.2328C55.7255 62.8468 51.3978 65.1196 46.3809 66.0527C44.0963 66.4777 39.9029 66.4777 37.6183 66.0527C27.5381 64.1777 19.6475 56.3486 17.7577 46.3471C17.3044 43.948 17.3386 39.4032 17.8267 37.2003C18.4773 34.2635 19.7275 31.1542 21.1342 28.9747C22.6296 26.6575 25.1729 23.9493 27.438 22.2621C30.097 20.2815 34.2148 18.5474 37.6183 17.9752C38.5276 17.8223 39.4355 17.6184 39.6357 17.522C40.1542 17.2723 40.3585 16.5866 40.0976 15.9713C39.8075 15.2862 39.3748 15.1606 38.0316 15.3704ZM0.567313 16.5349C0.324274 16.696 0.00518281 17.3118 0.00518281 17.6197C0.00518281 17.7561 0.172499 18.0543 0.377181 18.2826C0.671307 18.6107 1.32387 18.853 3.49419 19.44C5.00384 19.8483 6.38486 20.1824 6.56293 20.1824C7.4701 20.1824 7.96891 18.7506 7.27782 18.1301C6.90549 17.7958 2.04075 16.408 1.2546 16.4119C0.976676 16.4134 0.667339 16.4687 0.567313 16.5349ZM79.574 17.1299C78.1887 17.5151 76.9052 17.9649 76.722 18.1296C76.0303 18.7506 76.5286 20.1824 77.4363 20.1824C77.6143 20.1824 78.9954 19.8483 80.505 19.44C82.6753 18.853 83.3279 18.6107 83.622 18.2826C84.0843 17.7669 84.0917 17.3971 83.6513 16.8417C83.1778 16.2442 82.617 16.2839 79.574 17.1299ZM52.4982 28.0385C52.2254 28.1073 51.8162 28.2579 51.5889 28.3732C51.3615 28.4885 48.2206 31.5069 44.6087 35.0805L38.0419 41.5781L35.4328 39.0323C32.7092 36.3748 32.2747 36.0932 30.9032 36.0955C29.5355 36.0976 29.12 36.3594 26.6455 38.7769C25.226 40.1639 24.1463 41.3619 23.9625 41.7539C23.5607 42.6111 23.5611 44.0146 23.9632 44.8707C24.1659 45.3023 26.046 47.2741 29.4568 50.6321C34.2802 55.3806 34.7116 55.7625 35.6343 56.102C36.4527 56.4034 36.8721 56.4554 38.0316 56.3994C40.1247 56.2984 40.6827 55.9877 43.189 53.5272C45.0506 51.6995 45.3062 51.3834 45.3062 50.9073C45.3062 50.2128 44.8092 49.71 44.123 49.71C43.6799 49.71 43.3108 49.9926 41.6843 51.5778C40.6301 52.605 39.5295 53.5646 39.2385 53.7103C38.5018 54.0789 37.0135 54.0535 36.2477 53.6593C35.9104 53.4856 33.4954 51.2126 30.881 48.6084C26.5116 44.2557 26.1277 43.8281 26.1277 43.3128C26.1277 42.8132 26.358 42.5236 28.2426 40.6535C30.1221 38.7889 30.4202 38.5551 30.9192 38.5551C31.4261 38.5551 31.772 38.8425 34.4725 41.5079C37.1952 44.195 37.5158 44.4606 38.0366 44.4606C38.5703 44.4606 39.0856 43.9877 45.67 37.456C52.3787 30.8012 52.7611 30.4514 53.3308 30.4514C53.8777 30.4514 54.1037 30.625 55.9009 32.425C57.6349 34.1616 57.8715 34.4651 57.8715 34.9514C57.8715 35.4585 57.4182 35.9554 52.4155 40.9337C46.5034 46.8171 46.5057 46.814 47.3655 47.6668C48.2277 48.5225 48.2201 48.5279 54.2051 42.6152C57.828 39.0359 59.8322 36.9352 60.035 36.5046C60.414 35.7003 60.4423 34.3332 60.097 33.5056C59.7918 32.7739 55.9022 28.8248 55.057 28.3884C54.3582 28.0277 53.1809 27.8668 52.4982 28.0385ZM3.55983 64.5351C0.481836 65.3922 0.577398 65.354 0.244584 65.8581C-0.266293 66.6316 0.276493 67.5906 1.225 67.5906C2.04042 67.5906 6.9002 66.209 7.27782 65.8699C8.01421 65.2087 7.45109 63.7995 6.46323 63.8312C6.23044 63.8386 4.92382 64.1553 3.55983 64.5351ZM76.7506 64.1521C76.2813 64.586 76.2664 65.4613 76.7214 65.8699C77.099 66.209 81.9588 67.5906 82.7739 67.5906C83.1548 67.5906 83.4074 67.466 83.6513 67.1583C84.0917 66.6029 84.0843 66.2331 83.622 65.7174C83.3279 65.3893 82.6753 65.147 80.505 64.5601C78.9954 64.1517 77.6143 63.8176 77.4363 63.8176C77.2582 63.8176 76.9495 63.9682 76.7506 64.1521ZM11.1651 71.3596C10.9833 71.4364 8.39795 73.9257 5.41982 76.8914C-0.450308 82.7374 -0.450308 82.7375 0.411074 83.592C1.27378 84.4482 1.2665 84.4536 7.23417 78.5423C10.2616 75.5435 12.7819 72.9544 12.8348 72.7887C12.9772 72.3435 12.6066 71.5966 12.1381 71.3848C11.6676 71.1721 11.6135 71.1706 11.1651 71.3596ZM71.8125 71.3909C71.3839 71.6007 71.0291 72.366 71.1644 72.7887C71.2173 72.9544 73.7376 75.5435 76.765 78.5423C82.7327 84.4536 82.7254 84.4482 83.5881 83.592C84.4521 82.7348 84.4579 82.7425 78.4967 76.831C75.0057 73.3693 72.8486 71.3496 72.5861 71.2971C72.3587 71.2516 72.0107 71.2938 71.8125 71.3909ZM18.3971 76.7372C18.2076 76.9252 17.785 78.1618 17.3084 79.9227C16.6918 82.2003 16.5631 82.8895 16.6912 83.2239C16.9906 84.0051 17.8616 84.2177 18.5527 83.6783C18.8823 83.421 19.1082 82.8068 19.7606 80.3922L20.5633 77.4228L20.229 76.9769C19.8011 76.4057 18.8557 76.2822 18.3971 76.7372ZM63.8355 76.8811C63.6471 77.1188 63.4928 77.3913 63.4928 77.4867C63.4928 77.582 63.8324 78.9193 64.2472 80.4583C65.0423 83.4068 65.3657 83.9948 66.1932 83.9948C66.6968 83.9948 67.2377 83.5892 67.3556 83.1234C67.4978 82.5612 65.9204 76.9365 65.5441 76.6634C65.034 76.2933 64.2191 76.3972 63.8355 76.8811Z" fill="#323031"/>
</svg>
