<svg width="13" height="8" viewBox="0 0 13 8" fill="none" xmlns="http://www.w3.org/2000/svg">
<path d="M12.0977 0.656939L6.49943 6.23587L0.901191 0.656939C0.801169 0.557061 0.666897 0.501145 0.527079 0.501145C0.387261 0.501145 0.252989 0.557061 0.152967 0.656939C0.104537 0.705451 0.0660617 0.763353 0.0397955 0.827257C0.0135293 0.891161 0 0.95978 0 1.0291C0 1.09841 0.0135293 1.16703 0.0397955 1.23094C0.0660617 1.29484 0.104537 1.35274 0.152967 1.40125L6.10851 7.33745C6.2131 7.44167 6.35338 7.5 6.49943 7.5C6.64548 7.5 6.78575 7.44167 6.89034 7.33745L12.8459 1.4024C12.8947 1.35385 12.9334 1.29581 12.9599 1.23169C12.9864 1.16758 13 1.09869 13 1.0291C13 0.959504 12.9864 0.890617 12.9599 0.826502C12.9334 0.762386 12.8947 0.704342 12.8459 0.655794C12.7459 0.555915 12.6116 0.5 12.4718 0.5C12.332 0.5 12.1977 0.555915 12.0977 0.655794V0.656939Z" fill="black"/>
</svg>
