<svg width="50" height="51" viewBox="0 0 50 51" fill="none" xmlns="http://www.w3.org/2000/svg">
<rect x="-0.5" y="0.5" width="49" height="49" transform="matrix(-1 0 0 1 49 0.540161)" stroke="black"/>
<path fill-rule="evenodd" clip-rule="evenodd" d="M12.75 24.5402C12.75 24.3081 12.8422 24.0855 13.0063 23.9214C13.1704 23.7574 13.393 23.6652 13.625 23.6652H34.2628L28.7555 18.1597C28.6742 18.0783 28.6096 17.9817 28.5656 17.8754C28.5216 17.7691 28.4989 17.6552 28.4989 17.5402C28.4989 17.4251 28.5216 17.3112 28.5656 17.2049C28.6096 17.0986 28.6742 17.002 28.7555 16.9207C28.8369 16.8393 28.9335 16.7748 29.0398 16.7308C29.146 16.6867 29.26 16.6641 29.375 16.6641C29.4901 16.6641 29.604 16.6867 29.7103 16.7308C29.8166 16.7748 29.9132 16.8393 29.9945 16.9207L36.9945 23.9207C37.076 24.0019 37.1407 24.0985 37.1848 24.2048C37.2289 24.3111 37.2516 24.4251 37.2516 24.5402C37.2516 24.6553 37.2289 24.7692 37.1848 24.8755C37.1407 24.9818 37.076 25.0784 36.9945 25.1597L29.9945 32.1597C29.9132 32.241 29.8166 32.3056 29.7103 32.3496C29.604 32.3936 29.4901 32.4163 29.375 32.4163C29.26 32.4163 29.146 32.3936 29.0398 32.3496C28.9335 32.3056 28.8369 32.241 28.7555 32.1597C28.6742 32.0783 28.6096 31.9817 28.5656 31.8754C28.5216 31.7691 28.4989 31.6552 28.4989 31.5402C28.4989 31.4251 28.5216 31.3112 28.5656 31.2049C28.6096 31.0986 28.6742 31.002 28.7555 30.9207L34.2628 25.4152H13.625C13.393 25.4152 13.1704 25.323 13.0063 25.1589C12.8422 24.9948 12.75 24.7722 12.75 24.5402Z" fill="black"/>
</svg>
