<svg width="50" height="51" viewBox="0 0 50 51" fill="none" xmlns="http://www.w3.org/2000/svg">
<rect x="0.5" y="1.04016" width="49" height="49" stroke="black"/>
<path fill-rule="evenodd" clip-rule="evenodd" d="M37.2501 24.5402C37.2501 24.3081 37.1579 24.0855 36.9938 23.9214C36.8297 23.7574 36.6072 23.6652 36.3751 23.6652H15.7373L21.2446 18.1597C21.326 18.0783 21.3905 17.9817 21.4345 17.8754C21.4785 17.7691 21.5012 17.6552 21.5012 17.5402C21.5012 17.4251 21.4785 17.3112 21.4345 17.2049C21.3905 17.0986 21.326 17.002 21.2446 16.9207C21.1632 16.8393 21.0667 16.7748 20.9604 16.7308C20.8541 16.6867 20.7402 16.6641 20.6251 16.6641C20.51 16.6641 20.3961 16.6867 20.2898 16.7308C20.1835 16.7748 20.087 16.8393 20.0056 16.9207L13.0056 23.9207C12.9241 24.0019 12.8595 24.0985 12.8154 24.2048C12.7712 24.3111 12.7485 24.4251 12.7485 24.5402C12.7485 24.6553 12.7712 24.7692 12.8154 24.8755C12.8595 24.9818 12.9241 25.0784 13.0056 25.1597L20.0056 32.1597C20.087 32.241 20.1835 32.3056 20.2898 32.3496C20.3961 32.3936 20.51 32.4163 20.6251 32.4163C20.7402 32.4163 20.8541 32.3936 20.9604 32.3496C21.0667 32.3056 21.1632 32.241 21.2446 32.1597C21.326 32.0783 21.3905 31.9817 21.4345 31.8754C21.4785 31.7691 21.5012 31.6552 21.5012 31.5402C21.5012 31.4251 21.4785 31.3112 21.4345 31.2049C21.3905 31.0986 21.326 31.002 21.2446 30.9207L15.7373 25.4152H36.3751C36.6072 25.4152 36.8297 25.323 36.9938 25.1589C37.1579 24.9948 37.2501 24.7722 37.2501 24.5402Z" fill="black"/>
</svg>
