<svg width="35" height="35" viewBox="0 0 35 35" fill="none" xmlns="http://www.w3.org/2000/svg">
<rect width="35" height="35" fill="#FFD600"/>
<path d="M25.0025 9H8.9975C8.73355 9.00196 8.48097 9.10769 8.29433 9.29433C8.10769 9.48097 8.00196 9.73355 8 9.9975V26.0025C8.00196 26.2664 8.10769 26.519 8.29433 26.7057C8.48097 26.8923 8.73355 26.998 8.9975 27H17.615V20.04H15.275V17.3175H17.615V15.315C17.615 12.99 19.0325 11.7225 21.1175 11.7225C21.815 11.7225 22.5125 11.7225 23.21 11.8275V14.25H21.7775C20.645 14.25 20.4275 14.79 20.4275 15.5775V17.31H23.1275L22.775 20.0325H20.4275V27H25.0025C25.2664 26.998 25.519 26.8923 25.7057 26.7057C25.8923 26.519 25.998 26.2664 26 26.0025V9.9975C25.998 9.73355 25.8923 9.48097 25.7057 9.29433C25.519 9.10769 25.2664 9.00196 25.0025 9Z" fill="#323031"/>
</svg>
