<svg width="35" height="35" viewBox="0 0 35 35" fill="none" xmlns="http://www.w3.org/2000/svg">
<rect width="35" height="35" fill="#FFD600"/>
<path d="M16.9976 14.9987C15.345 14.9987 13.9964 16.3474 13.9964 18C13.9964 19.6526 15.345 21.0013 16.9976 21.0013C18.6502 21.0013 19.9988 19.6526 19.9988 18C19.9988 16.3474 18.6502 14.9987 16.9976 14.9987ZM25.999 18C25.999 16.7572 26.0103 15.5256 25.9405 14.285C25.8707 12.844 25.5419 11.5652 24.4883 10.5114C23.4323 9.45548 22.1557 9.12901 20.7148 9.05921C19.472 8.98941 18.2404 9.00067 16.9998 9.00067C15.757 9.00067 14.5255 8.98941 13.2849 9.05921C11.8439 9.12901 10.5651 9.45773 9.51141 10.5114C8.45547 11.5674 8.129 12.844 8.05921 14.285C7.98941 15.5278 8.00067 16.7594 8.00067 18C8.00067 19.2406 7.98941 20.4744 8.05921 21.715C8.129 23.156 8.45772 24.4348 9.51141 25.4886C10.5674 26.5445 11.8439 26.871 13.2849 26.9408C14.5277 27.0106 15.7593 26.9993 16.9998 26.9993C18.2426 26.9993 19.4742 27.0106 20.7148 26.9408C22.1557 26.871 23.4346 26.5423 24.4883 25.4886C25.5442 24.4326 25.8707 23.156 25.9405 21.715C26.0125 20.4744 25.999 19.2428 25.999 18ZM16.9976 22.6179C14.4422 22.6179 12.3798 20.5555 12.3798 18C12.3798 15.4445 14.4422 13.3821 16.9976 13.3821C19.553 13.3821 21.6154 15.4445 21.6154 18C21.6154 20.5555 19.553 22.6179 16.9976 22.6179ZM21.8045 14.2715C21.2078 14.2715 20.726 13.7897 20.726 13.193C20.726 12.5963 21.2078 12.1145 21.8045 12.1145C22.4011 12.1145 22.8829 12.5963 22.8829 13.193C22.8831 13.3347 22.8554 13.475 22.8012 13.6059C22.7471 13.7369 22.6677 13.8558 22.5675 13.956C22.4673 14.0562 22.3483 14.1356 22.2174 14.1897C22.0865 14.2439 21.9462 14.2717 21.8045 14.2715Z" fill="#323031"/>
</svg>
