<svg width="35" height="35" viewBox="0 0 35 35" fill="none" xmlns="http://www.w3.org/2000/svg">
<rect width="35" height="35" fill="#FFD600"/>
<g clip-path="url(#clip0_271_2795)">
<path fill-rule="evenodd" clip-rule="evenodd" d="M9.66663 11.8921C9.66663 11.5671 9.79572 11.2554 10.0255 11.0256C10.2553 10.7958 10.567 10.6667 10.892 10.6667H23.1066C23.2677 10.6665 23.4272 10.698 23.5761 10.7595C23.7249 10.8209 23.8602 10.9112 23.9741 11.025C24.0881 11.1388 24.1784 11.274 24.2401 11.4228C24.3017 11.5715 24.3334 11.731 24.3333 11.8921V24.1067C24.3335 24.2678 24.3019 24.4274 24.2403 24.5762C24.1788 24.7251 24.0885 24.8604 23.9746 24.9743C23.8608 25.0882 23.7255 25.1786 23.5767 25.2402C23.4279 25.3018 23.2684 25.3335 23.1073 25.3334H10.892C10.731 25.3334 10.5716 25.3017 10.4229 25.2401C10.2742 25.1785 10.1391 25.0881 10.0253 24.9743C9.91149 24.8604 9.82125 24.7253 9.75971 24.5765C9.69817 24.4278 9.66654 24.2684 9.66663 24.1074V11.8921ZM15.472 16.2587H17.458V17.2561C17.7446 16.6828 18.478 16.1667 19.58 16.1667C21.6926 16.1667 22.1933 17.3088 22.1933 19.4041V23.2854H20.0553V19.8814C20.0553 18.6881 19.7686 18.0148 19.0406 18.0148C18.0306 18.0148 17.6106 18.7408 17.6106 19.8814V23.2854H15.472V16.2587ZM11.8053 23.1941H13.944V16.1667H11.8053V23.1934V23.1941ZM14.25 13.8747C14.254 14.0579 14.2214 14.2399 14.1541 14.4103C14.0868 14.5806 13.9862 14.7358 13.8581 14.8668C13.73 14.9977 13.5771 15.1017 13.4083 15.1728C13.2394 15.2438 13.0581 15.2804 12.875 15.2804C12.6918 15.2804 12.5105 15.2438 12.3417 15.1728C12.1728 15.1017 12.0199 14.9977 11.8918 14.8668C11.7637 14.7358 11.6631 14.5806 11.5958 14.4103C11.5285 14.2399 11.4959 14.0579 11.5 13.8747C11.5079 13.5153 11.6562 13.1733 11.9132 12.9219C12.1702 12.6705 12.5154 12.5297 12.875 12.5297C13.2345 12.5297 13.5797 12.6705 13.8367 12.9219C14.0937 13.1733 14.242 13.5153 14.25 13.8747Z" fill="#323031"/>
</g>
<defs>
<clipPath id="clip0_271_2795">
<rect width="16" height="16" fill="white" transform="translate(9 10)"/>
</clipPath>
</defs>
</svg>
