<svg width="176" height="24" viewBox="0 0 176 24" fill="none" xmlns="http://www.w3.org/2000/svg">
<path d="M36.2466 0.938068C36.2466 0.609769 36.518 0.328369 36.8881 0.328369H40.0464C40.3918 0.328369 40.6879 0.633219 40.6879 0.938068V19.2525H49.4472C49.8173 19.2525 50.0887 19.5339 50.0887 19.8622V22.5355C50.0887 22.8638 49.8173 23.1452 49.4472 23.1452H36.8881C36.518 23.1452 36.2466 22.8638 36.2466 22.5355V0.938068Z" fill="white"/>
<path d="M63.1904 0.938068C63.1904 0.609769 63.5112 0.328369 63.832 0.328369H67.1136C67.4837 0.328369 67.7551 0.633219 67.7551 0.938068V14.2811C67.7551 17.0482 69.7537 19.2525 72.7393 19.2525C75.7248 19.2525 77.7481 17.0716 77.7481 14.328V0.938068C77.7481 0.609769 78.0195 0.328369 78.3896 0.328369H81.6712C82.0167 0.328369 82.3128 0.633219 82.3128 0.938068V14.5156C82.3128 19.4635 78.1675 23.4969 72.7393 23.4969C67.3603 23.4969 63.1904 19.487 63.1904 14.5156V0.938068Z" fill="white"/>
<path d="M98.5234 0.938068C98.5234 0.609769 98.7949 0.328369 99.165 0.328369H113.13C113.501 0.328369 113.772 0.633219 113.772 0.938068V3.61136C113.772 3.93966 113.501 4.22106 113.13 4.22106H102.965V10.365H111.453C111.798 10.365 112.094 10.6698 112.094 10.9747V13.6479C112.094 13.9762 111.773 14.2576 111.453 14.2576H102.965V22.512C102.965 22.8403 102.644 23.1217 102.323 23.1217H99.1896C98.8195 23.1217 98.5481 22.8403 98.5481 22.512V0.938068H98.5234Z" fill="white"/>
<path d="M170.917 13.9293C173.138 13.0851 174.865 11.514 175.605 9.5442C175.876 8.86415 176 8.11376 176 7.33991C176 3.44721 172.644 0.328369 168.524 0.328369H158.703C158.309 0.328369 158.037 0.609769 158.037 0.961518V22.5589C158.037 22.8872 158.309 23.1921 158.703 23.1921H161.862C162.207 23.1921 162.528 22.8872 162.528 22.5589V14.2342H166.328L170.892 22.8872C170.966 23.0279 171.139 23.1921 171.435 23.1921H175.037C175.63 23.1921 175.852 22.6762 175.63 22.2541L170.917 13.9293ZM170.695 9.5442C170.078 10.2712 169.116 10.7402 168.129 10.7402H162.528V4.24451H168.129C169.955 4.24451 171.534 5.67496 171.534 7.41026C171.534 8.20756 171.213 8.95795 170.695 9.5442Z" fill="white"/>
<path d="M22.8237 22.3244L12.2633 0.351749C12.1646 0.16415 12.0165 0 11.6711 0H11.3257C11.0049 0 10.8569 0.16415 10.7335 0.351749L0.0743444 22.3244C-0.123047 22.7465 0.148366 23.1686 0.66652 23.1686H13.2009C13.719 23.1686 13.9905 22.7465 13.7931 22.3244L12.584 19.8152C12.51 19.6745 12.3867 19.1821 11.6218 19.1821H6.21816L11.4737 8.18404L18.2591 22.512C18.5058 22.9575 18.7279 23.1686 19.246 23.1686H22.2316C22.7744 23.1686 23.0458 22.7465 22.8237 22.3244Z" fill="white"/>
<path d="M146.44 22.3244L135.88 0.351749C135.781 0.16415 135.633 0 135.288 0H134.942C134.622 0 134.473 0.16415 134.35 0.351749L123.666 22.3009C123.469 22.723 123.74 23.1451 124.258 23.1451H136.793C137.311 23.1451 137.582 22.723 137.385 22.3009L136.201 19.8152C136.127 19.6745 136.003 19.1821 135.238 19.1821H129.835L135.09 8.18404L141.876 22.512C142.122 22.9575 142.344 23.1686 142.863 23.1686H145.848C146.366 23.1686 146.638 22.7465 146.44 22.3244Z" fill="white"/>
</svg>
