<svg width="195" height="35" viewBox="0 0 195 35" fill="none" xmlns="http://www.w3.org/2000/svg">
<path d="M37.0564 10.7596C37.0564 10.4068 37.3336 10.1044 37.7115 10.1044H40.9369C41.2897 10.1044 41.592 10.432 41.592 10.7596V30.4392H50.5373C50.9153 30.4392 51.1925 30.7416 51.1925 31.0943V33.9669C51.1925 34.3197 50.9153 34.6221 50.5373 34.6221H37.7115C37.3336 34.6221 37.0564 34.3197 37.0564 33.9669V10.7596Z" fill="#282829"/>
<path d="M64.5726 10.7596C64.5726 10.4068 64.9002 10.1044 65.2278 10.1044H68.5539C68.9319 10.1044 69.209 10.432 69.209 10.7596V25.0972C69.209 28.0706 71.2501 30.4392 74.299 30.4392C77.348 30.4392 79.4142 28.0958 79.4142 25.1476V10.7596C79.4142 10.4068 79.6914 10.1044 80.0694 10.1044H83.3955C83.7483 10.1044 84.0506 10.432 84.0506 10.7596V25.3492C84.0506 30.666 79.8174 35 74.2738 35C68.7807 35 64.5222 30.6912 64.5222 25.3492V10.7596H64.5726Z" fill="#282829"/>
<path d="M100.631 10.7596C100.631 10.4068 100.908 10.1044 101.286 10.1044H115.548C115.926 10.1044 116.203 10.432 116.203 10.7596V13.6321C116.203 13.9849 115.926 14.2873 115.548 14.2873H105.167V20.8892H113.835C114.188 20.8892 114.49 21.2167 114.49 21.5443V24.4169C114.49 24.7696 114.162 25.072 113.835 25.072H105.167V33.9417C105.167 34.2945 104.839 34.5969 104.512 34.5969H101.286C100.908 34.5969 100.631 34.2945 100.631 33.9417V10.7596Z" fill="#282829"/>
<path d="M174.562 24.7193C176.83 23.8121 178.594 22.1239 179.35 20.0072C179.627 19.2765 179.753 18.4702 179.753 17.6386C179.753 13.4558 176.326 10.1044 172.118 10.1044H162.089C161.686 10.1044 161.409 10.4068 161.409 10.7848V33.9921C161.409 34.3449 161.686 34.6725 162.089 34.6725H165.314C165.667 34.6725 165.995 34.3449 165.995 33.9921V25.0468H169.875L174.537 34.3449C174.612 34.4961 174.789 34.6725 175.091 34.6725H178.77C179.375 34.6725 179.602 34.1181 179.375 33.6645L174.562 24.7193ZM174.36 20.0072C173.73 20.7884 172.748 21.2923 171.74 21.2923H166.02V14.2873H171.74C173.604 14.2873 175.217 15.8244 175.217 17.689C175.192 18.5709 174.889 19.3773 174.36 20.0072Z" fill="#282829"/>
<path d="M23.3489 33.7149L12.5389 10.1296C12.4382 9.928 12.287 9.75162 11.9342 9.75162H11.5814C11.2538 9.75162 11.1027 9.928 10.9767 10.1296L0.0659504 33.7149C-0.135633 34.1684 0.141543 34.622 0.6707 34.622H13.4713C14.0004 34.622 14.2776 34.1684 14.076 33.7149L12.8665 31.0439C12.7909 30.8927 12.6649 30.3636 11.8838 30.3636H6.36544L11.7326 18.5457L18.6872 33.9417C18.9392 34.4204 19.166 34.6472 19.6952 34.6472H22.7441C23.2733 34.622 23.5505 34.1684 23.3489 33.7149Z" fill="#282829"/>
<path d="M149.565 33.7149L138.756 10.1296C138.655 9.928 138.504 9.75162 138.151 9.75162H137.823C137.496 9.75162 137.344 9.928 137.218 10.1296L126.308 33.7149C126.106 34.1684 126.383 34.622 126.913 34.622H139.713C140.242 34.622 140.519 34.1684 140.318 33.7149L139.108 31.0439C139.033 30.8927 138.907 30.3636 138.126 30.3636H132.607L137.974 18.5457L144.929 33.9417C145.181 34.4204 145.408 34.6472 145.937 34.6472H148.986C149.515 34.622 149.792 34.1684 149.565 33.7149Z" fill="#282829"/>
<path d="M187.463 13.1533C183.835 13.1533 180.886 10.2052 180.886 6.57667C180.886 2.94816 183.835 0 187.463 0C191.092 0 194.04 2.94816 194.04 6.57667C194.04 10.2052 191.092 13.1533 187.463 13.1533ZM187.463 1.46148C184.641 1.46148 182.323 3.7545 182.323 6.60187C182.323 9.42404 184.616 11.7423 187.463 11.7423C190.311 11.7423 192.604 9.44924 192.604 6.60187C192.604 3.7545 190.285 1.46148 187.463 1.46148Z" fill="black"/>
<path d="M188.295 7.08059C188.774 6.87901 189.126 6.55143 189.303 6.09787C189.353 5.94668 189.378 5.7703 189.378 5.59391C189.378 4.71198 188.673 4.00644 187.791 4.00644H185.699C185.624 4.00644 185.548 4.08203 185.548 4.15763V8.99564C185.548 9.07123 185.599 9.14682 185.699 9.14682H186.38C186.455 9.14682 186.531 9.07123 186.531 8.99564V7.13099H187.337L188.32 9.07123C188.345 9.09643 188.37 9.14682 188.446 9.14682H189.227C189.353 9.14682 189.404 9.02083 189.353 8.94524L188.295 7.08059ZM188.244 6.09787C188.118 6.24906 187.917 6.37505 187.69 6.37505H186.506V4.91357H187.69C188.068 4.91357 188.421 5.24114 188.421 5.61911C188.421 5.79549 188.37 5.97188 188.244 6.09787Z" fill="#282829"/>
</svg>
