<svg width="195" height="35" viewBox="0 0 195 35" fill="none" xmlns="http://www.w3.org/2000/svg">
<path d="M37.0564 10.7596C37.0564 10.4069 37.3336 10.1045 37.7115 10.1045H40.9369C41.2897 10.1045 41.592 10.4321 41.592 10.7596V30.4393H50.5373C50.9153 30.4393 51.1925 30.7416 51.1925 31.0944V33.967C51.1925 34.3197 50.9153 34.6221 50.5373 34.6221H37.7115C37.3336 34.6221 37.0564 34.3197 37.0564 33.967V10.7596Z" fill="white"/>
<path d="M64.5726 10.7596C64.5726 10.4069 64.9002 10.1045 65.2278 10.1045H68.5539C68.9319 10.1045 69.209 10.4321 69.209 10.7596V25.0973C69.209 28.0706 71.2501 30.4393 74.299 30.4393C77.348 30.4393 79.4142 28.0958 79.4142 25.1477V10.7596C79.4142 10.4069 79.6914 10.1045 80.0694 10.1045H83.3955C83.7483 10.1045 84.0506 10.4321 84.0506 10.7596V25.3493C84.0506 30.666 79.8174 35.0001 74.2738 35.0001C68.7807 35.0001 64.5222 30.6912 64.5222 25.3493V10.7596H64.5726Z" fill="white"/>
<path d="M100.631 10.7596C100.631 10.4069 100.908 10.1045 101.286 10.1045H115.548C115.926 10.1045 116.203 10.4321 116.203 10.7596V13.6322C116.203 13.985 115.926 14.2874 115.548 14.2874H105.167V20.8892H113.835C114.188 20.8892 114.49 21.2168 114.49 21.5444V24.4169C114.49 24.7697 114.162 25.0721 113.835 25.0721H105.167V33.9418C105.167 34.2945 104.839 34.5969 104.512 34.5969H101.286C100.908 34.5969 100.631 34.2945 100.631 33.9418V10.7596Z" fill="white"/>
<path d="M174.562 24.7193C176.83 23.8122 178.594 22.1239 179.35 20.0073C179.627 19.2766 179.753 18.4702 179.753 17.6387C179.753 13.4558 176.326 10.1045 172.118 10.1045H162.089C161.686 10.1045 161.409 10.4069 161.409 10.7848V33.9922C161.409 34.3449 161.686 34.6725 162.089 34.6725H165.314C165.667 34.6725 165.995 34.3449 165.995 33.9922V25.0469H169.875L174.537 34.3449C174.612 34.4961 174.789 34.6725 175.091 34.6725H178.77C179.375 34.6725 179.602 34.1182 179.375 33.6646L174.562 24.7193ZM174.36 20.0073C173.731 20.7884 172.748 21.2924 171.74 21.2924H166.02V14.2874H171.74C173.605 14.2874 175.217 15.8244 175.217 17.6891C175.192 18.571 174.89 19.3773 174.36 20.0073Z" fill="white"/>
<path d="M23.3489 33.715L12.5389 10.1297C12.4382 9.92809 12.287 9.75171 11.9342 9.75171H11.5814C11.2538 9.75171 11.1027 9.92809 10.9767 10.1297L0.0659504 33.715C-0.135633 34.1685 0.141543 34.6221 0.6707 34.6221H13.4713C14.0004 34.6221 14.2776 34.1685 14.076 33.715L12.8665 31.044C12.7909 30.8928 12.6649 30.3636 11.8838 30.3636H6.36544L11.7326 18.5458L18.6872 33.9418C18.9392 34.4205 19.166 34.6473 19.6952 34.6473H22.7441C23.2733 34.6221 23.5505 34.1685 23.3489 33.715Z" fill="white"/>
<path d="M149.566 33.715L138.756 10.1297C138.655 9.92809 138.504 9.75171 138.151 9.75171H137.823C137.496 9.75171 137.345 9.92809 137.219 10.1297L126.308 33.715C126.106 34.1685 126.383 34.6221 126.913 34.6221H139.713C140.242 34.6221 140.52 34.1685 140.318 33.715L139.108 31.044C139.033 30.8928 138.907 30.3636 138.126 30.3636H132.607L137.975 18.5458L144.929 33.9418C145.181 34.4205 145.408 34.6473 145.937 34.6473H148.986C149.515 34.6221 149.792 34.1685 149.566 33.715Z" fill="white"/>
<path d="M187.463 13.1533C183.835 13.1533 180.886 10.2052 180.886 6.57667C180.886 2.94816 183.835 0 187.463 0C191.092 0 194.04 2.94816 194.04 6.57667C194.04 10.2052 191.092 13.1533 187.463 13.1533ZM187.463 1.46148C184.641 1.46148 182.323 3.7545 182.323 6.60187C182.323 9.42404 184.616 11.7423 187.463 11.7423C190.311 11.7423 192.604 9.44924 192.604 6.60187C192.604 3.7545 190.285 1.46148 187.463 1.46148Z" fill="white"/>
<path d="M188.295 7.0805C188.773 6.87892 189.126 6.55134 189.303 6.09778C189.353 5.94659 189.378 5.77021 189.378 5.59382C189.378 4.71189 188.673 4.00635 187.791 4.00635H185.699C185.624 4.00635 185.548 4.08194 185.548 4.15754V8.99555C185.548 9.07114 185.598 9.14673 185.699 9.14673H186.38C186.455 9.14673 186.531 9.07114 186.531 8.99555V7.1309H187.337L188.32 9.07114C188.345 9.09634 188.37 9.14673 188.446 9.14673H189.227C189.353 9.14673 189.403 9.02074 189.353 8.94515L188.295 7.0805ZM188.244 6.09778C188.118 6.24897 187.917 6.37496 187.69 6.37496H186.506V4.91347H187.69C188.068 4.91347 188.421 5.24105 188.421 5.61902C188.421 5.7954 188.37 5.97179 188.244 6.09778Z" fill="white"/>
</svg>
