<svg width="17" height="17" viewBox="0 0 17 17" fill="none" xmlns="http://www.w3.org/2000/svg">
<path d="M14.9307 16.0103H14.826C2.73041 15.3144 1.01302 5.10482 0.772953 1.98897C0.753609 1.74671 0.782241 1.50301 0.857207 1.27184C0.932173 1.04067 1.052 0.826564 1.20982 0.641798C1.36764 0.457032 1.56036 0.305235 1.77693 0.195103C1.99349 0.0849721 2.22966 0.0186716 2.47188 5.77349e-07H5.86358C6.11014 -0.0002382 6.3511 0.0735922 6.55523 0.211928C6.75937 0.350265 6.91728 0.546733 7.00851 0.775883L7.94415 3.0789C8.03423 3.30276 8.05659 3.54817 8.00844 3.78464C7.96029 4.02111 7.84375 4.23821 7.6733 4.40898L6.36218 5.73291C6.56698 6.8972 7.12434 7.97045 7.95886 8.80747C8.79337 9.6445 9.86476 10.2049 11.0281 10.4128L12.3638 9.08891C12.5371 8.92028 12.7562 8.80642 12.9937 8.76152C13.2312 8.71663 13.4767 8.74268 13.6996 8.83644L16.0202 9.76627C16.2458 9.86041 16.4383 10.0196 16.5731 10.2236C16.708 10.4276 16.7791 10.6671 16.7773 10.9116V14.1629C16.7773 14.6529 16.5828 15.1228 16.2365 15.4692C15.8901 15.8156 15.4204 16.0103 14.9307 16.0103ZM2.61961 1.23156C2.45636 1.23156 2.29979 1.29644 2.18435 1.41192C2.06891 1.5274 2.00406 1.68403 2.00406 1.84734V1.8966C2.28721 5.54202 4.1031 14.1629 14.8937 14.7787C14.9746 14.7837 15.0557 14.7727 15.1323 14.7463C15.2089 14.7199 15.2795 14.6786 15.3401 14.6248C15.4007 14.571 15.4502 14.5058 15.4855 14.4329C15.5209 14.36 15.5415 14.2808 15.5462 14.1999V10.9116L13.2256 9.98179L11.459 11.7368L11.1635 11.6998C5.80818 11.0286 5.08182 5.67133 5.08182 5.61591L5.04489 5.32034L6.79306 3.55305L5.86973 1.23156H2.61961Z" fill="#FFD600"/>
</svg>
