<svg width="29" height="18" viewBox="0 0 29 18" fill="none" xmlns="http://www.w3.org/2000/svg">
<path d="M10.2291 17.0103C10.8527 17.0103 11.4507 16.7507 11.8916 16.2888C12.3325 15.8269 12.5802 15.2004 12.5802 14.5471C12.5802 13.8939 12.3325 13.2674 11.8916 12.8054C11.4507 12.3435 10.8527 12.084 10.2291 12.084C9.60552 12.084 9.0075 12.3435 8.56657 12.8054C8.12564 13.2674 7.87793 13.8939 7.87793 14.5471C7.87793 15.2004 8.12564 15.8269 8.56657 16.2888C9.0075 16.7507 9.60552 17.0103 10.2291 17.0103V17.0103ZM21.9849 17.0103C22.6085 17.0103 23.2065 16.7507 23.6474 16.2888C24.0883 15.8269 24.336 15.2004 24.336 14.5471C24.336 13.8939 24.0883 13.2674 23.6474 12.8054C23.2065 12.3435 22.6085 12.084 21.9849 12.084C21.3613 12.084 20.7633 12.3435 20.3224 12.8054C19.8814 13.2674 19.6337 13.8939 19.6337 14.5471C19.6337 15.2004 19.8814 15.8269 20.3224 16.2888C20.7633 16.7507 21.3613 17.0103 21.9849 17.0103V17.0103Z" stroke="#FFD600" stroke-width="1.09161" stroke-miterlimit="1.5" stroke-linecap="round" stroke-linejoin="round"/>
<path d="M7.46645 14.5472H5.05651C4.96388 14.5472 4.87216 14.528 4.78658 14.4909C4.70101 14.4538 4.62325 14.3993 4.55775 14.3307C4.49225 14.2621 4.4403 14.1807 4.40485 14.091C4.3694 14.0013 4.35116 13.9053 4.35116 13.8082V7.77358M12.639 14.5472H18.4581V1.73894C18.4581 1.54296 18.3838 1.35501 18.2515 1.21643C18.1192 1.07785 17.9398 1 17.7528 1H2L12.639 14.5472Z" stroke="#FFD600" stroke-width="1.09161" stroke-linecap="round"/>
<path d="M3.17554 4.6947H7.87786" stroke="#FFD600" stroke-width="1.09161" stroke-linecap="round" stroke-linejoin="round"/>
<path d="M18.458 14.5472H19.6336M19.0458 4.6947H25.053C25.1894 4.69474 25.3228 4.73617 25.4371 4.81398C25.5514 4.89179 25.6418 5.00265 25.6972 5.13314L27.8015 10.0939C27.8416 10.1881 27.8624 10.29 27.8626 10.3931V13.8082C27.8626 13.9053 27.8444 14.0014 27.809 14.091C27.7735 14.1807 27.7216 14.2621 27.6561 14.3308C27.5906 14.3994 27.5128 14.4538 27.4272 14.4909C27.3416 14.5281 27.2499 14.5472 27.1573 14.5472H24.9237L19.0458 4.6947Z" stroke="#FFD600" stroke-width="1.09161" stroke-linecap="round"/>
</svg>
