<svg width="35" height="35" viewBox="0 0 35 35" fill="none" xmlns="http://www.w3.org/2000/svg">
<rect width="35" height="35" fill="#FFD600"/>
<path d="M29.4991 11.8118C29.3625 11.2673 29.0946 10.7708 28.7223 10.3719C28.35 9.973 27.8863 9.68573 27.3777 9.53885C25.5054 9 18 9 18 9C18 9 10.4946 9 8.62232 9.53599C8.11345 9.68239 7.64953 9.96949 7.27716 10.3685C6.90479 10.7674 6.63707 11.2642 6.50089 11.8089C6 13.8153 6 18 6 18C6 18 6 22.1847 6.50089 24.1882C6.77679 25.2946 7.59107 26.1659 8.62232 26.4611C10.4946 27 18 27 18 27C18 27 25.5054 27 27.3777 26.4611C28.4116 26.1659 29.2232 25.2946 29.4991 24.1882C30 22.1847 30 18 30 18C30 18 30 13.8153 29.4991 11.8118ZM15.6161 21.8408V14.1592L21.8304 17.9713L15.6161 21.8408Z" fill="#323031"/>
</svg>
