<svg width="256" height="256" viewBox="0 0 256 256" fill="none" xmlns="http://www.w3.org/2000/svg">
<path d="M119.693 0.0402017C119.29 0.0841832 117.783 0.223039 116.344 0.348491C88.9657 2.73836 62.9302 14.2165 42.0151 33.1172C34.9618 39.4914 27.6827 47.8408 22.3002 55.731C4.59781 81.6816 -2.91176 112.87 1.0196 144.113C4.48498 171.652 17.0907 197.643 36.5557 217.383C43.4988 224.424 49.6659 229.551 57.3105 234.636C86.7181 254.201 122.662 260.669 157.269 252.625C186.338 245.868 212.418 228.756 230.573 204.529C235.357 198.144 238.988 192.216 242.754 184.639C250.099 169.865 254.244 154.966 255.662 138.251C256.112 132.95 256.113 123.026 255.664 117.724C254.222 100.69 250.194 86.1855 242.692 71.0198C230.222 45.808 209.438 25.153 184.095 12.7854C170.572 6.18567 157.388 2.37122 141.674 0.511641C138.631 0.151621 136.521 0.068266 129.218 0.0192581C124.382 -0.0132045 120.096 -0.00357034 119.693 0.0402017ZM137.068 18.0364C163.839 20.3425 187.932 31.6952 206.678 50.8355C223.661 68.1759 234.256 89.9608 237.325 113.849C238.445 122.564 238.483 132.351 237.432 141.181C234.236 168.037 220.899 193.128 200.288 211.064C182.892 226.203 161.756 235.314 138.663 237.628C133.401 238.155 123.392 238.204 118.332 237.728C109.099 236.859 101.219 235.204 92.849 232.377C76.6906 226.92 62.299 217.943 50.0802 205.7C33.6554 189.243 22.874 168.19 19.2385 145.474C18.1623 138.75 18.0612 137.235 18.0639 127.882C18.0668 118.543 18.1903 116.687 19.2288 110.394C22.2023 92.3756 29.3106 75.7719 40.1651 61.4905C49.3281 49.435 60.5996 39.5178 73.5342 32.1316C87.5186 24.1458 102.439 19.498 118.751 18.0469C123.158 17.6548 132.576 17.6496 137.068 18.0364ZM126.694 61.2821C126.343 61.3917 125.855 61.6956 125.61 61.9571C125.365 62.2189 123.334 66.3913 121.097 71.2293C112.153 90.5711 108.193 99.1431 107.648 100.341C107.013 101.738 99.6259 117.723 98.5507 120.028C98.1745 120.834 97.3284 122.672 96.6702 124.112C96.0121 125.552 93.4244 131.159 90.9195 136.573C79.0318 162.268 78.6629 163.04 78.6616 163.812C78.6615 163.862 78.663 163.912 78.663 163.968C78.663 164.458 78.8099 165.069 78.9898 165.325C79.0789 165.452 79.1386 165.565 79.2153 165.664C79.8326 166.465 81.5476 166.418 108.503 166.418C135.185 166.418 137.163 166.487 137.731 165.626C137.82 165.492 137.874 165.336 137.982 165.153C138.532 164.221 138.393 163.449 137.2 160.827C136.582 159.467 135.253 156.517 134.247 154.271C133.242 152.024 132.217 149.962 131.97 149.688C131.816 149.518 131.688 149.372 131.543 149.247C130.677 148.505 129.175 148.504 117.761 148.406L105.466 148.302L107.941 142.856C109.302 139.861 112.656 132.463 115.395 126.416C125.767 103.511 127.886 98.87 128.045 98.7095C128.135 98.6187 128.64 99.514 129.168 100.699C129.695 101.884 131.699 106.341 133.621 110.603C139.967 124.677 141.811 128.767 144.241 134.165C145.564 137.102 147.754 141.956 149.108 144.951C150.462 147.946 151.925 151.197 152.359 152.176C155.665 159.631 157.863 164.293 158.373 164.932C158.637 165.263 158.841 165.521 159.09 165.721C159.964 166.421 161.403 166.417 168.008 166.417C176.348 166.418 176.519 166.395 177.153 165.168C177.254 164.972 177.345 164.819 177.406 164.655C177.743 163.74 177.125 162.473 172.025 151.338C170.732 148.516 169.226 145.218 168.678 144.008C168.13 142.799 166.623 139.5 165.328 136.678C160.525 126.208 156.399 117.192 155.072 114.268C154.523 113.059 153.275 110.326 152.299 108.195C144.221 90.5623 140.402 82.2129 134.767 69.868C132.787 65.5312 131.136 62.1892 130.806 61.8482C130.317 61.3439 130.039 61.2509 128.786 61.173C127.988 61.1234 127.046 61.1724 126.694 61.2821Z" fill="#323031"/>
<path d="M119.693 0.0402017C119.29 0.0841832 117.783 0.223039 116.344 0.348491C88.9657 2.73836 62.9302 14.2165 42.0151 33.1172C34.9618 39.4914 27.6827 47.8408 22.3002 55.731C4.59781 81.6816 -2.91176 112.87 1.0196 144.113C4.48498 171.652 17.0907 197.643 36.5557 217.383C43.4988 224.424 49.6659 229.551 57.3105 234.636C86.7181 254.201 122.662 260.669 157.269 252.625C186.338 245.868 212.418 228.756 230.573 204.529C235.357 198.144 238.988 192.216 242.754 184.639C250.099 169.865 254.244 154.966 255.662 138.251C256.112 132.95 256.113 123.026 255.664 117.724C254.222 100.69 250.194 86.1855 242.692 71.0198C230.222 45.808 209.438 25.153 184.095 12.7854C170.572 6.18567 157.388 2.37122 141.674 0.511641C138.631 0.151621 136.521 0.068266 129.218 0.0192581C124.382 -0.0132045 120.096 -0.00357034 119.693 0.0402017ZM137.068 18.0364C163.839 20.3425 187.932 31.6952 206.678 50.8355C223.661 68.1759 234.256 89.9608 237.325 113.849C238.445 122.564 238.483 132.351 237.432 141.181C234.236 168.037 220.899 193.128 200.288 211.064C182.892 226.203 161.756 235.314 138.663 237.628C133.401 238.155 123.392 238.204 118.332 237.728C109.099 236.859 101.219 235.204 92.849 232.377C76.6906 226.92 62.299 217.943 50.0802 205.7C33.6554 189.243 22.874 168.19 19.2385 145.474C18.1623 138.75 18.0612 137.235 18.0639 127.882C18.0668 118.543 18.1903 116.687 19.2288 110.394C22.2023 92.3756 29.3106 75.7719 40.1651 61.4905C49.3281 49.435 60.5996 39.5178 73.5342 32.1316C87.5186 24.1458 102.439 19.498 118.751 18.0469C123.158 17.6548 132.576 17.6496 137.068 18.0364ZM126.694 61.2821C126.343 61.3917 125.855 61.6956 125.61 61.9571C125.365 62.2189 123.334 66.3913 121.097 71.2293C112.153 90.5711 108.193 99.1431 107.648 100.341C107.013 101.738 99.6259 117.723 98.5507 120.028C98.1745 120.834 97.3284 122.672 96.6702 124.112C96.0121 125.552 93.4244 131.159 90.9195 136.573C79.0318 162.268 78.6629 163.04 78.6616 163.812C78.6615 163.862 78.663 163.912 78.663 163.968C78.663 164.458 78.8099 165.069 78.9898 165.325C79.0789 165.452 79.1386 165.565 79.2153 165.664C79.8326 166.465 81.5476 166.418 108.503 166.418C135.185 166.418 137.163 166.487 137.731 165.626C137.82 165.492 137.874 165.336 137.982 165.153C138.532 164.221 138.393 163.449 137.2 160.827C136.582 159.467 135.253 156.517 134.247 154.271C133.242 152.024 132.217 149.962 131.97 149.688C131.816 149.518 131.688 149.372 131.543 149.247C130.677 148.505 129.175 148.504 117.761 148.406L105.466 148.302L107.941 142.856C109.302 139.861 112.656 132.463 115.395 126.416C125.767 103.511 127.886 98.87 128.045 98.7095C128.135 98.6187 128.64 99.514 129.168 100.699C129.695 101.884 131.699 106.341 133.621 110.603C139.967 124.677 141.811 128.767 144.241 134.165C145.564 137.102 147.754 141.956 149.108 144.951C150.462 147.946 151.925 151.197 152.359 152.176C155.665 159.631 157.863 164.293 158.373 164.932C158.637 165.263 158.841 165.521 159.09 165.721C159.964 166.421 161.403 166.417 168.008 166.417C176.348 166.418 176.519 166.395 177.153 165.168C177.254 164.972 177.345 164.819 177.406 164.655C177.743 163.74 177.125 162.473 172.025 151.338C170.732 148.516 169.226 145.218 168.678 144.008C168.13 142.799 166.623 139.5 165.328 136.678C160.525 126.208 156.399 117.192 155.072 114.268C154.523 113.059 153.275 110.326 152.299 108.195C144.221 90.5623 140.402 82.2129 134.767 69.868C132.787 65.5312 131.136 62.1892 130.806 61.8482C130.317 61.3439 130.039 61.2509 128.786 61.173C127.988 61.1234 127.046 61.1724 126.694 61.2821Z" stroke="#323031"/>
</svg>
